<?xml version="1.0" standalone="no"?>
<!DOCTYPE svg PUBLIC "-//W3C//DTD SVG 1.1//EN" "http://www.w3.org/Graphics/SVG/1.1/DTD/svg11.dtd" >
<svg xmlns="http://www.w3.org/2000/svg">
<metadata>Generated by IcoMoon</metadata>
<defs>
<font id="icomoon" horiz-adv-x="1024">
<font-face units-per-em="1024" ascent="960" descent="-64" />
<missing-glyph horiz-adv-x="1024" />
<glyph unicode="&#x20;" horiz-adv-x="512" d="" />
<glyph unicode="&#xe900;" glyph-name="7" d="M194.372 766.95c67.985 68.002 155.69 112.118 252.585 126.030 118.425 17.028 236.437-13.17 332.213-84.892 95.803-71.771 157.927-176.542 174.95-294.967 35.122-244.645-135.34-472.13-379.83-507.275-102.52-14.704-207.644 6.785-296.021 60.442-15.101 9.188-19.915 28.884-10.749 43.983 9.259 14.969 28.866 19.909 43.984 10.723 75.692-46.001 165.803-64.377 253.705-51.778 209.519 30.067 355.604 225.082 325.536 434.802-14.57 101.534-67.83 191.295-149.956 252.784-82.101 61.518-183.237 87.34-284.753 72.725-209.74-30.057-355.78-225.116-325.649-434.743 7.901-54.883 26.935-106.173 56.72-152.388 9.541-14.925 5.185-34.793-9.586-44.249-14.855-9.581-34.683-5.293-44.244 9.541-34.749 54.093-57.003 113.919-66.261 177.988-17 118.43 13.151 236.506 84.969 332.305 13.043 17.458 27.22 33.827 42.387 48.969v0 0 0zM586.088 630.776h-193.891c-16.801 0-25.18 8.38-25.18 25.18 0 11.725 8.38 19.279 25.18 22.662h231.661c18.453-1.692 28.525-7.554 30.217-17.626-1.693-8.42-5.902-19.318-12.592-32.735l-171.227-390.3c-6.728-11.764-17.627-17.626-32.735-17.626s-22.662 5.863-22.662 17.626c-1.692 5.037 1.653 15.108 10.072 30.217l161.156 360.083v2.518z" />
<glyph unicode="&#xe901;" glyph-name="15" d="M194.372 766.95c67.985 68.002 155.69 112.118 252.585 126.030 118.425 17.028 236.437-13.17 332.212-84.892 95.803-71.771 157.927-176.542 174.951-294.968 35.121-244.645-135.34-472.129-379.83-507.274-102.52-14.704-207.644 6.785-296.022 60.442-15.101 9.188-19.915 28.884-10.749 43.983 9.259 14.969 28.866 19.909 43.984 10.723 75.692-46.001 165.803-64.377 253.705-51.778 209.518 30.067 355.603 225.082 325.535 434.802-14.57 101.534-67.829 191.295-149.956 252.785-82.099 61.516-183.235 87.339-284.751 72.724-209.74-30.057-355.78-225.116-325.649-434.743 7.901-54.883 26.935-106.173 56.72-152.388 9.541-14.925 5.185-34.793-9.586-44.249-14.855-9.581-34.683-5.293-44.244 9.541-34.749 54.093-57.003 113.919-66.261 177.988-17 118.43 13.151 236.506 84.969 332.305 13.043 17.458 27.219 33.827 42.387 48.969v0 0 0zM338.314 263.799v341.368h-53.552c-13.386 0-20.081 7.428-20.081 22.312 0 11.886 6.695 18.58 20.081 20.080h89.247c10.393 0 15.623-4.463 15.623-13.386v-370.374c-1.5-14.886-10.425-22.313-26.776-22.313-16.387 0-24.542 7.427-24.542 22.313v0zM574.817 605.167l-15.617-111.559c14.85 7.426 32.699 11.891 53.546 13.39 62.474-7.462 97.403-49.088 104.866-124.946-4.464-92.246-49.084-139.101-133.873-140.565-62.472 1.465-100.401 23.046-113.786 64.703 0 11.893 5.923 18.581 17.847 20.080 4.464 0 12.62-5.223 24.545-15.617 23.77-17.849 48.314-26.775 73.624-26.775 47.59 2.963 73.632 32.703 78.091 89.248-2.997 55.012-26.77 84.019-71.394 87.016-16.39 0-34.237-3.73-53.551-11.153-7.461-2.998-12.652-4.464-15.617-4.464-11.926 0-17.85 5.191-17.85 15.617 0 4.465 1.465 15.618 4.465 33.466l22.306 140.565c-1.499 8.927 4.464 13.386 17.854 13.386h140.56c13.385-1.499 20.813-8.188 22.313-20.080-1.5-14.884-8.928-22.312-22.313-22.312h-116.017z" />
<glyph unicode="&#xe902;" glyph-name="arrows_roundness1-right" d="M444.082 270.367c-5.224 0-10.449 2.090-14.629 6.269-8.359 8.359-8.359 21.42 0 29.78l156.735 156.735c8.359 8.359 21.42 8.359 29.78 0s8.359-21.42 0-29.78l-156.735-156.735c-4.702-4.18-9.927-6.269-15.151-6.269zM600.816 427.102c-5.224 0-10.449 2.090-14.629 6.269l-156.735 156.735c-8.359 8.359-8.359 21.42 0 29.78s21.42 8.359 29.78 0l156.735-156.735c8.359-8.359 8.359-21.42 0-29.78-4.702-4.18-9.927-6.269-15.151-6.269zM512 30.041c-230.4 0-417.959 187.559-417.959 417.959s187.559 417.959 417.959 417.959 417.959-187.559 417.959-417.959-187.559-417.959-417.959-417.959zM512 824.163c-207.412 0-376.163-168.751-376.163-376.163s168.751-376.163 376.163-376.163 376.163 168.751 376.163 376.163-168.751 376.163-376.163 376.163z" />
<glyph unicode="&#xe903;" d="M512 30.041c-230.4 0-417.959 187.559-417.959 417.959s187.559 417.959 417.959 417.959 417.959-187.559 417.959-417.959-187.559-417.959-417.959-417.959z" />
<glyph unicode="&#xe904;" d="M444.082 270.367c-5.224 0-10.449 2.090-14.629 6.269-8.359 8.359-8.359 21.42 0 29.78l156.735 156.735c8.359 8.359 21.42 8.359 29.78 0s8.359-21.42 0-29.78l-156.735-156.735c-4.702-4.18-9.927-6.269-15.151-6.269z" />
<glyph unicode="&#xe905;" glyph-name="pencil" d="M864 960c88.364 0 160-71.634 160-160 0-36.020-11.91-69.258-32-96l-64-64-224 224 64 64c26.742 20.090 59.978 32 96 32zM64 224l-64-288 288 64 592 592-224 224-592-592zM715.578 596.422l-448-448-55.156 55.156 448 448 55.156-55.156z" />
<glyph unicode="&#xe906;" d="M600.816 427.102c-5.224 0-10.449 2.090-14.629 6.269l-156.735 156.735c-8.359 8.359-8.359 21.42 0 29.78s21.42 8.359 29.78 0l156.735-156.735c8.359-8.359 8.359-21.42 0-29.78-4.702-4.18-9.927-6.269-15.151-6.269z" />
<glyph unicode="&#xe907;" glyph-name="arrows-left" d="M778.966 831.24l-383.064-383.063 388.026-388.13c12.709-13.137 20.53-31.025 20.53-50.731 0-40.377-32.737-73.112-73.115-73.112-19.706 0-37.591 7.819-50.73 20.529l-0.035-0.036-438.65 438.717c-13.78 13.281-22.384 31.916-22.384 52.586 0 0.072 0 0.106 0 0.178s0 0.108 0 0.144c0 20.67 8.604 39.341 22.384 52.622l-0.036 0.035 438.863 438.505c13.139 12.566 30.951 20.314 50.587 20.314 40.379 0 73.115-32.737 73.115-73.114-0.001-22.169-9.889-42.018-25.491-55.443z" />
<glyph unicode="&#xe908;" glyph-name="arrows-right" d="M801.548 449.729l-500.294-500.090c-18.243-18.243-47.738-18.106-65.844 0.307-8.347 8.511-13.498 20.183-13.498 33.057 0 13.011 5.261 24.793 13.773 33.334l433.358 433.153-433.256 430.153c-8.58 8.547-13.889 20.371-13.889 33.436 0 12.826 5.117 24.457 13.42 32.963l-0.009-0.009c8.42 8.641 20.172 14 33.175 14 12.75 0 24.297-5.153 32.671-13.491l-0.002 0.002 500.396-496.816z" />
<glyph unicode="&#xe909;" glyph-name="cart1" d="M940.8 675.2c-16 19.2-38.4 28.8-64 28.8h-524.8c-19.2 0-32-12.8-32-32s12.8-32 32-32h524.8c6.4 0 12.8-3.2 16-6.4s6.4-9.6 3.2-19.2l-48-336c0-9.6-12.8-19.2-25.6-19.2h-486.4c-12.8 0-25.6 16-25.6 28.8l-54.4 371.2-28.8 156.8c-6.4 44.8-44.8 80-92.8 80h-38.4c-19.2 0-32-16-32-32s12.8-32 32-32h38.4c12.8 0 25.6-9.6 28.8-25.6l28.8-156.8 51.2-371.2c6.4-48 44.8-86.4 89.6-86.4h486.4c44.8 0 83.2 32 89.6 73.6l51.2 339.2c3.2 25.6-3.2 51.2-19.2 70.4zM259.2 64c0-35.346 28.654-64 64-64s64 28.654 64 64v0c0 35.346-28.654 64-64 64s-64-28.654-64-64v0zM768 64c0-35.346 28.654-64 64-64s64 28.654 64 64v0c0 35.346-28.654 64-64 64s-64-28.654-64-64v0z" />
<glyph unicode="&#xe90a;" glyph-name="charge" d="M502.8 109.3c-45.7 0-90.1 9-131.9 26.6-40.4 17.1-76.6 41.5-107.7 72.6s-55.5 67.4-72.6 107.7c-17.7 41.8-26.6 86.2-26.6 131.9s9 90.1 26.6 131.9c17.1 40.4 41.5 76.6 72.6 107.7s67.4 55.5 107.7 72.6c41.8 17.7 86.2 26.6 131.9 26.6s90.1-9 131.9-26.6c40.4-17.1 76.6-41.5 107.7-72.6s55.5-67.4 72.6-107.7c17.7-41.8 26.6-86.2 26.6-131.9s-9-90.1-26.6-131.9c-17.1-40.4-41.5-76.6-72.6-107.7s-67.4-55.5-107.7-72.6c-41.8-17.6-86.2-26.6-131.9-26.6zM502.8 737.1c-159.3 0-288.9-129.6-288.9-288.9s129.6-288.9 288.9-288.9 288.9 129.6 288.9 288.9-129.6 288.9-288.9 288.9zM503.3 467.6l-129.4 129.4 35.4 35.4 94-94 93.5 93.5 35.4-35.4zM369.3 377.3h266.9v-50h-266.9zM369.3 482.4h266.9v-50h-266.9zM478 535.8h50v-299.2h-50z" />
<glyph unicode="&#xe90b;" glyph-name="circulation" d="M137.7 387.1c-3.2 5.6-11.3 5.7-14.6 0.1l-35.6-61.2c-3.3-5.6 0.8-12.7 7.3-12.7l70.8-0.2c6.5 0 10.6 7 7.4 12.6l-17.6 30.8-17.7 30.6zM860.2 486.2c-3.2-5.6-11.3-5.7-14.6-0.1l-17.8 30.6-17.8 30.7c-3.3 5.6 0.8 12.7 7.3 12.7l70.8 0.2c6.5 0 10.6-7 7.4-12.6l-17.6-30.8-17.7-30.7zM856 534.1c-6 0-11.5 3.8-13.4 9.8-48.2 154.3-195 259.9-356.8 256.7-157.7-3.1-295.2-106.3-342.3-256.7-2.3-7.4-10.2-11.5-17.5-9.2-7.4 2.3-11.5 10.2-9.2 17.5 12.2 38.9 30.3 75.6 53.9 109.1 23.3 33.1 51.4 62.3 83.6 86.8 66.8 51 146.7 78.8 231 80.5 43.9 0.9 87.1-5.4 128.5-18.7 40-12.9 77.6-32 111.7-56.9 33.7-24.6 63.2-54.3 87.6-88.2 24.8-34.4 43.7-72.2 56.3-112.5 2.3-7.4-1.8-15.2-9.2-17.5-1.4-0.5-2.8-0.7-4.2-0.7zM493 40.3c-41.1 0-81.6 6.3-120.5 18.8-40 12.9-77.6 32-111.7 56.9-33.7 24.6-63.2 54.3-87.6 88.2-24.8 34.4-43.7 72.2-56.3 112.5-2.3 7.4 1.8 15.2 9.2 17.5s15.2-1.8 17.5-9.2c48.2-154.3 195-259.9 356.8-256.7 157.7 3.1 295.2 106.3 342.3 256.7 2.3 7.4 10.2 11.5 17.5 9.2 7.4-2.3 11.5-10.2 9.2-17.5-13.242-41.601-31.57-77.789-54.717-110.309l0.817 1.209c-23.3-33.1-51.4-62.3-83.6-86.8-66.8-51-146.7-78.8-231-80.5-2.6 0.1-5.3 0-7.9 0z" />
<glyph unicode="&#xe90c;" glyph-name="Fcode" d="M820.526 823.232h-461.504v-273.632h400.24l4.080-81.68h-404.319v-379.808h-89.84v816.8h551.343v-81.679z" />
<glyph unicode="&#xe90d;" glyph-name="gift" d="M85.931 9.984c0-24.576 7.125-31.317 29.44-31.317h353.365v469.589h-382.805v-438.272zM555.264-21.333h353.365c22.357 0 29.44 6.699 29.44 31.317v438.272h-382.848v-469.589zM938.667 704h-213.333c51.499 11.733 105.899 49.707 112.597 94.293 7.851 50.859-52.565 127.957-125.653 118.187-87.424-12.117-151.509-89.259-196.736-149.077-44.885 58.667-103.381 127.189-187.179 147.115-81.152 19.2-136.747-64.939-135.253-116.992 1.451-44.245 52.608-81.835 105.557-93.525h-213.333c-26.368 0-42.667-14.848-42.667-42.667v-170.581l426.667-0.085v213.333h85.333v-213.333l426.667 0.085v170.581c0 27.819-16.341 42.667-42.667 42.667zM251.648 781.824c-14.763 16.427-4.779 38.741 4.48 55.595 17.024 29.696 40.747 47.744 81.152 30.933 56.32-23.509 97.792-73.216 131.584-117.803-71.552-7.893-178.304-10.965-217.216 31.275zM562.944 751.317c34.816 44.629 75.221 89.941 131.157 117.803 58.581 28.971 113.024-49.323 85.205-86.912-21.419-28.544-89.259-31.232-125.909-32.853-30.080-1.536-60.501-0.811-90.453 1.963z" />
<glyph unicode="&#xe90e;" glyph-name="message" d="M0 761.223v-433.692c0-84.328 68.266-152.595 152.595-152.595h228.895l8.032-192.753 224.878 192.753h257.003c84.328 0 152.595 68.266 152.595 152.595v433.692c0 84.328-68.266 152.595-152.595 152.595h-718.804c-84.328 0-152.595-68.266-152.595-152.595h-0.004zM658.57 520.283c0 40.158 32.125 72.282 72.282 72.282s72.282-32.125 72.282-72.282c0-40.158-32.125-72.282-72.282-72.282s-72.282 32.125-72.282 72.282v0zM437.708 520.283c0 40.158 32.125 72.282 72.282 72.282s72.282-32.125 72.282-72.282c0-40.158-32.125-72.282-72.282-72.282-40.158 0-72.282 32.125-72.282 72.282zM220.864 520.283c0 40.158 32.125 72.282 72.282 72.282s72.282-32.125 72.282-72.282c0-40.158-32.125-72.282-72.282-72.282-40.159 0-72.282 32.125-72.282 72.282z" />
<glyph unicode="&#xe90f;" glyph-name="miLogo" d="M706.976 165.608v404.969c0 92.015-74.57 166.619-166.575 166.619h-468.252c-3.61 0-6.536-2.909-6.536-6.483v-565.101c0-3.573 2.925-6.469 6.536-6.469h125.075c3.611 0 6.532 2.911 6.532 6.505v443.538c0 3.601 2.925 6.523 6.536 6.523h268.963c50.507 0 91.466-40.939 91.466-91.453v-358.594c0-3.598 2.921-6.502 6.513-6.502h123.234c3.585 0 6.513 2.902 6.513 6.469l-0.005-0.020zM454.399 165.652c0-0.005 0-0.011 0-0.016 0-3.586-2.907-6.493-6.493-6.493-0.006 0-0.012 0-0.017 0h-125.044c-3.611 0-6.536 2.911-6.536 6.509v339.88c0 3.598 2.925 6.518 6.536 6.518h125.045c0.002 0 0.004 0 0.006 0 3.592 0 6.503-2.912 6.503-6.503 0-0.005 0-0.011 0-0.016v0.001-339.88zM954.445 165.652c0-3.601-2.929-6.509-6.539-6.509h-125.016c-3.62 0-6.565 2.911-6.565 6.509v565.001c0 3.614 2.944 6.532 6.565 6.532h125.016c0.003 0 0.007 0 0.010 0 3.606 0 6.529-2.923 6.529-6.529 0-0.001 0-0.002 0-0.003v0-565.001z" />
<glyph unicode="&#xe910;" glyph-name="mi-logo" d="M706.976 165.608v404.969c0 92.015-74.57 166.619-166.575 166.619h-468.252c-3.61 0-6.536-2.909-6.536-6.483v-565.101c0-3.573 2.925-6.469 6.536-6.469h125.075c3.611 0 6.532 2.911 6.532 6.505v443.538c0 3.601 2.925 6.523 6.536 6.523h268.963c50.507 0 91.466-40.939 91.466-91.453v-358.594c0-3.598 2.921-6.502 6.513-6.502h123.234c3.585 0 6.513 2.902 6.513 6.469l-0.005-0.020zM454.399 165.652c0-0.005 0-0.011 0-0.016 0-3.586-2.907-6.493-6.493-6.493-0.006 0-0.012 0-0.017 0h-125.044c-3.611 0-6.536 2.911-6.536 6.509v339.88c0 3.598 2.925 6.518 6.536 6.518h125.045c0.002 0 0.004 0 0.006 0 3.592 0 6.503-2.912 6.503-6.503 0-0.005 0-0.011 0-0.016v0.001-339.88zM954.445 165.652c0-3.601-2.929-6.509-6.539-6.509h-125.016c-3.62 0-6.565 2.911-6.565 6.509v565.001c0 3.614 2.944 6.532 6.565 6.532h125.016c0.003 0 0.007 0 0.010 0 3.606 0 6.529-2.923 6.529-6.529 0-0.001 0-0.002 0-0.003v0-565.001z" />
<glyph unicode="&#xe911;" glyph-name="pause" d="M793.6-12.8h-563.2c-113.101 0-204.8 91.699-204.8 204.8v512c0 113.101 91.699 204.8 204.8 204.8h563.2c113.101 0 204.8-91.699 204.8-204.8v-512c0-113.101-91.699-204.8-204.8-204.8zM947.2 673.28c0 101.786-82.534 184.32-184.32 184.32h-501.76c-101.786 0-184.32-82.534-184.32-184.32v-450.56c0-101.786 82.534-184.32 184.32-184.32h501.76c101.786 0 184.32 82.534 184.32 184.32v450.56zM384 651.776l307.2-203.776-307.2-203.776v407.552z" />
<glyph unicode="&#xe912;" glyph-name="personal" d="M512 896c-123.71 0-224-100.29-224-224s100.29-224 224-224 224 100.29 224 224-100.29 224-224 224zM512 512c-88.366 0-160 71.634-160 160s71.634 160 160 160c88.366 0 160-71.634 160-160v0c0-88.366-71.634-160-160-160v0zM512 448c212.080 0 384-171.92 384-384h64c0 247.42-200.58 448-448 448s-448-200.58-448-448h64c0 212.080 171.92 384 384 384zM64 64c0-17.673 14.327-32 32-32s32 14.327 32 32v0c0 17.673-14.327 32-32 32s-32-14.327-32-32v0zM896 64c0-17.673 14.327-32 32-32s32 14.327 32 32v0c0 17.673-14.327 32-32 32s-32-14.327-32-32v0z" />
<glyph unicode="&#xe913;" glyph-name="phone" d="M794.88 960h-565.76c-37.632 0-68.096-30.464-68.096-68.096v-887.808c0-37.632 30.464-68.096 68.096-68.096h565.76c37.632 0 68.096 30.464 68.096 68.096v887.808c0 37.376-30.464 68.096-68.096 68.096zM229.12 930.56h565.76c21.248 0 38.656-17.408 38.656-38.656v-709.12h-643.072v709.12c0 21.248 17.152 38.656 38.656 38.656zM794.88-34.816h-565.76c-21.248 0-38.656 17.408-38.656 38.656v149.504h643.328v-149.248c-0.256-21.504-17.408-38.912-38.912-38.912zM465.92 57.088c0-25.449 20.631-46.080 46.080-46.080s46.080 20.631 46.080 46.080v0c0 25.449-20.631 46.080-46.080 46.080s-46.080-20.631-46.080-46.080v0z" />
<glyph unicode="&#xe914;" glyph-name="position" d="M515.417-18.654c-58.612-0.358-352.582 443.448-352.582 591.853 0 196.159 157.851 355.080 352.582 355.080 194.685 0 352.537-158.92 352.537-355.080 0-146.45-294.855-592.211-352.537-591.853zM515.417 888.013c-172.37 0-312.049-140.391-312.049-313.39 0-131.126 260.158-533.060 312.049-532.88 51.046-0.181 312.048 403.533 312.048 532.88 0 172.998-139.721 313.39-312.048 313.39zM515.417 425.149c-81.151 0-146.939 66.276-146.939 148.050 0 81.598 65.787 147.875 146.939 147.875 81.108 0 146.896-66.276 146.896-147.875 0-81.773-65.788-148.050-146.896-148.050zM515.417 668.517c-51.716 0-93.622-42.046-93.622-93.893 0-52.023 41.907-94.069 93.622-94.069 51.667 0 93.58 42.046 93.58 94.069 0 51.848-41.914 93.893-93.58 93.893z" />
<glyph unicode="&#xe915;" glyph-name="search" d="M976.738 67.938l-263.877 261.908c53.169 74.831 80.738 169.354 66.954 269.785-23.631 169.354-161.477 303.262-332.8 319.015-232.369 23.631-429.292-173.292-405.662-407.631 15.754-169.354 149.662-309.169 319.015-332.8 100.431-13.785 194.954 13.785 269.785 66.954l261.908-261.908c11.815-11.815 29.538-11.815 41.354 0l41.354 41.354c11.815 11.815 11.815 31.508 1.969 43.323zM157.538 548.431c0 139.815 114.215 254.031 254.031 254.031s254.031-114.215 254.031-254.031-114.215-254.031-254.031-254.031-254.031 112.246-254.031 254.031z" />
<glyph unicode="&#xe916;" glyph-name="service" d="M892.928 606.72c-12.672 196.8-177.728 349.184-380.928 349.184s-361.92-152.384-380.928-349.184c-69.888-19.008-126.976-82.496-126.976-158.72v-63.488c-0.005-0.459-0.008-1.001-0.008-1.544 0-86.81 70.374-157.184 157.184-157.184 0.543 0 1.085 0.003 1.626 0.008l-0.082-0.001h95.232v380.992h-63.488c19.008 158.656 152.384 285.696 317.44 285.696 165.12 0 298.432-126.976 317.44-285.696h-63.488v-380.992h63.488c-31.744-126.912-145.984-228.544-285.696-228.544-19.008 0-44.416 0-63.488 6.4v-57.152c19.072-6.4 44.48-6.4 63.488-6.4 171.456 0 317.44 126.976 342.784 285.696 6.4 19.072 6.4 38.144 6.4 63.488h-63.488v254.016h44.48c44.352 0 82.496-44.48 82.496-108.032v-44.352c0-57.152-38.144-108.032-82.496-108.032h19.008c0-19.008 0-38.080-6.4-63.424 76.224 19.072 133.376 88.896 133.376 165.056v63.488c0.064 76.224-57.088 139.776-126.976 158.72zM150.080 543.232h44.48v-260.352h-44.48c-44.352 6.4-82.496 50.88-82.496 114.368v38.016c0 63.488 38.080 107.968 82.496 107.968z" />
<glyph unicode="&#xe917;" glyph-name="sim" d="M606.306 811.856c-4.336 4.336-10.84 6.504-16.621 6.504h-306.405c-23.848 0-42.637-19.512-42.637-42.637v-661.951c0-23.848 19.512-42.637 42.637-42.637h469.002c23.848 0 42.637 19.512 42.637 42.637v520.311c0 7.227-2.891 14.453-8.672 18.789l-179.941 158.984zM744.333 120.999h-453.104v646.775h289.061l164.765-144.531v-502.244zM605.584 321.897c0-15.166 12.295-27.461 27.461-27.461s27.461 12.295 27.461 27.461v0c0 15.166-12.295 27.461-27.461 27.461s-27.461-12.295-27.461-27.461v0zM605.584 225.784c0-15.166 12.295-27.461 27.461-27.461s27.461 12.295 27.461 27.461v0c0 15.166-12.295 27.461-27.461 27.461s-27.461-12.295-27.461-27.461v0zM502.967 225.784c0-15.166 12.295-27.461 27.461-27.461s27.461 12.295 27.461 27.461v0c0 15.166-12.295 27.461-27.461 27.461s-27.461-12.295-27.461-27.461v0zM377.225 443.303v-213.183c0-18.789 15.176-33.965 33.965-33.965h23.848c13.73 0 25.293 11.562 25.293 25.293s-11.562 25.293-25.293 25.293h-7.227v179.941h179.941v-7.949c0-13.73 11.562-25.293 25.293-25.293s25.293 11.562 25.293 25.293v24.57c0 18.789-15.176 33.965-33.965 33.965h-213.183c-18.789 0-33.965-15.176-33.965-33.965z" />
<glyph unicode="&#xe918;" glyph-name="tool" d="M843.811-53.333c-0.167-0.001-0.364-0.001-0.562-0.001-46.883 0-89.35 18.904-120.196 49.505l0.011-0.011-213.333 215.467c-37.466-13.412-80.69-21.165-125.724-21.165-212.077 0-384 171.923-384 384 0 57.96 12.841 112.92 35.833 162.192l-0.989-2.361c5.884 12.662 17.442 21.824 31.316 24.282l0.257 0.038c2.194 0.4 4.72 0.629 7.298 0.629 11.821 0 22.52-4.807 30.247-12.574l0.002-0.002 137.387-136.96c15.068-13.646 35.152-21.998 57.187-21.998 47.128 0 85.333 38.205 85.333 85.333 0 22.141-8.432 42.313-22.261 57.478l0.061-0.067-132.267 132.693c-7.677 7.714-12.423 18.351-12.423 30.096 0 3.092 0.329 6.106 0.953 9.011l-0.051-0.28c3.105 14.108 12.863 25.414 25.74 30.618l0.286 0.102c41.67 17.262 90.062 27.293 140.795 27.307h0.005c212.075-0.003 383.994-171.925 383.994-384 0-43.819-7.34-85.924-20.857-125.152l0.809 2.699 215.893-213.333c30.671-30.848 49.629-73.37 49.629-120.32 0-94.154-76.244-170.501-170.359-170.666h-0.016zM518.265 303.787c0.073 0 0.16 0.001 0.247 0.001 11.721 0 22.338-4.726 30.049-12.377l234.664-234.664c15.451-15.451 36.796-25.007 60.373-25.007 47.155 0 85.381 38.226 85.381 85.381 0 23.577-9.557 44.922-25.007 60.373l-235.093 235.093c-7.601 7.7-12.296 18.286-12.296 29.968 0 5.971 1.227 11.656 3.442 16.817l-0.106-0.278c15.065 34.488 23.831 74.674 23.831 116.907 0 164.949-133.718 298.667-298.667 298.667-0.128 0-0.256 0-0.384 0h0.020c-15.187-0.143-29.977-1.224-44.486-3.188l1.819 0.201 80.213-82.347c36.336-31.474 59.186-77.681 59.186-129.225 0-94.257-76.41-170.667-170.667-170.667-51.969 0-98.514 23.229-129.816 59.87l-0.196 0.235-88.32 88.32c-4.045-18.588-6.375-39.948-6.4-61.849v-0.018c0-164.949 133.718-298.667 298.667-298.667v0c42.202 0.037 82.38 8.661 118.895 24.219l-1.988-0.753c4.433 1.91 9.594 3.021 15.015 3.021 0.572 0 1.14-0.012 1.706-0.037l-0.081 0.003z" />
<glyph unicode="&#xe93a;" glyph-name="cart" d="M384 32c0-53.019-42.981-96-96-96s-96 42.981-96 96c0 53.019 42.981 96 96 96s96-42.981 96-96zM1024 32c0-53.019-42.981-96-96-96s-96 42.981-96 96c0 53.019 42.981 96 96 96s96-42.981 96-96zM1024 448v384h-768c0 35.346-28.654 64-64 64h-192v-64h128l48.074-412.054c-29.294-23.458-48.074-59.5-48.074-99.946 0-70.696 57.308-128 128-128h768v64h-768c-35.346 0-64 28.654-64 64 0 0.218 0.014 0.436 0.016 0.656l831.984 127.344z" />
</font>
</defs>
</svg>
