<?xml version="1.0" standalone="no"?><!DOCTYPE svg PUBLIC "-//W3C//DTD SVG 1.1//EN" "http://www.w3.org/Graphics/SVG/1.1/DTD/svg11.dtd"><svg t="1563356770557" class="icon" viewBox="0 0 1024 1024" version="1.1" xmlns="http://www.w3.org/2000/svg" p-id="1735" xmlns:xlink="http://www.w3.org/1999/xlink" width="128" height="128"><defs><style type="text/css"></style></defs><path d="M703.352015 59.069744c58.539917 24.761006 111.108437 60.200445 156.242515 105.336931 45.135281 45.135281 80.57592401 97.702598 105.33693 156.24251401 25.64124201 60.623102 38.642486 125.004367 38.642486 191.35201499 0 66.348852-13.00124401 130.728913-38.642486 191.352015-24.761006 58.539917-60.200445 111.108437-105.33693 156.242515-45.134077 45.13528101-97.702598 80.57592401-156.242515 105.33693001-60.623102 25.64124201-125.003163 38.642486-191.352015 38.64248599s-130.728913-13.00124401-191.352015-38.64248599c-58.538713-24.761006-111.108437-60.200445-156.242515-105.33693001-45.13528101-45.134077-80.57592401-97.702598-105.33693-156.242515-25.64124201-60.623102-38.642486-125.003163-38.642486-191.352015 0-66.347648 13.00124401-130.728913 38.642486-191.35201499 24.761006-58.539917 60.200445-111.107233 105.33693-156.24251401 45.134077-45.13528101 97.703802-80.575924 156.242515-105.336931 60.623102-25.64124201 125.003163-38.642486 191.352015-38.64248599s130.728913 13.00124401 191.352015 38.64248599zM943.365072 512c0-237.855215-193.509858-431.365072-431.365072-431.365072s-431.365072 193.509858-431.365072 431.365072c0 237.85641899 193.509858 431.365072 431.365072 431.365072S943.365072 749.855215 943.365072 512z" p-id="1736" fill="#ffffff"></path><path d="M691.09252901 512.720084c-0.006021 0.244443-0.018062 0.488886-0.02889901 0.733329-0.012042 0.23481-0.022879 0.46962-0.039737 0.703226-0.018062 0.24926-0.040941 0.49852-0.06502499 0.748983-0.022879 0.227585-0.04455401 0.456374-0.07224901 0.683959-0.030104 0.254076-0.066228 0.506949-0.103557 0.761025a25.494336 25.494336 0 0 1-0.242035 1.431739c-0.04335 0.22036-0.085495 0.439516-0.133661 0.658671-0.055391 0.252872-0.115599 0.503336-0.177011 0.755005-0.052983 0.22036-0.10717 0.438312-0.16617301 0.658672-0.067433 0.246851-0.138478 0.492499-0.21193099 0.738146-0.066228 0.221564-0.131253 0.443128-0.203502 0.663488-0.075862 0.237218-0.15894799 0.473232-0.24083 0.709246-0.07827 0.226381-0.158948 0.452762-0.243239 0.67793901-0.08549499 0.226381-0.175806 0.451558-0.267322 0.676734-0.093924 0.231197-0.187848 0.463599-0.287793 0.692388-0.09272 0.21313499-0.190256 0.425066-0.287793 0.63579299-0.110782 0.237218-0.221564 0.476845-0.338367 0.711655-0.097536 0.198685-0.201094 0.394962-0.303446 0.592443-0.12764 0.24323901-0.257689 0.487682-0.392554 0.728513-0.103557 0.184235-0.210727 0.36726701-0.317897 0.549094-0.145703 0.24926001-0.293813 0.49731499-0.447945 0.742963-0.10837401 0.172194-0.22036 0.34198-0.331142 0.512969a23.288327 23.288327 0 0 1-0.850132 1.227032c-0.180623 0.248056-0.363654 0.493703-0.552707 0.736942-0.122824 0.157744-0.24926001 0.31308-0.375696 0.468416-0.192665 0.238422-0.387737 0.475641-0.588831 0.708042-0.134865 0.15894799-0.275751 0.314284-0.415433 0.46962-0.199889 0.222768-0.402187 0.443128-0.60930101 0.66108-0.061412 0.065024-0.118007 0.13125301-0.17941899 0.195073-0.099945 0.103557-0.20591 0.199889-0.307059 0.301038-0.120415 0.120415-0.233606 0.244443-0.35643 0.363655l-256.47263 248.602283c-11.939181 11.571914-30.997317 11.274488-42.568026-0.663488-11.57070999-11.937977-11.27448799-30.996112 0.663488-42.569231l234.17171-226.986526-234.17171-226.985322c-11.937977-11.571914-12.235403-30.631254-0.663488-42.569231 5.90396401-6.091812 13.756248-9.151566 21.61816599-9.151565a30.006298 30.006298 0 0 1 20.94865601 8.488077l256.47263 248.602284c0.125232 0.122824 0.242035 0.24926001 0.366063 0.373287 0.097536 0.098741 0.199889 0.19146 0.297426 0.291405 0.062616 0.06382 0.119211 0.131253 0.179419 0.196277 0.208319 0.216748 0.409412 0.437108 0.608097 0.659876 0.139682 0.155336 0.279364 0.310672 0.416637 0.46962a30.170063 30.170063 0 0 1 0.590035 0.709246c0.12523201 0.155336 0.251668 0.310672 0.374492 0.468416a40.053754 40.053754 0 0 1 0.899503 1.217399 30.000278 30.000278 0 0 1 0.503336 0.74657499c0.111986 0.17099 0.223973 0.339571 0.33114199 0.51297001 0.154132 0.245647 0.301038 0.492499 0.44794501 0.741758a30.970825 30.970825 0 0 1 0.317896 0.549094 30.501205 30.501205 0 0 1 0.39255399 0.729717c0.102353 0.196277 0.20591 0.393758 0.30344701 0.592443 0.116803 0.23481 0.227585 0.473232 0.338367 0.710451 0.097536 0.211931 0.19507301 0.423862 0.287793 0.636997 0.099945 0.228789 0.193869 0.459987 0.28779299 0.691184 0.090312 0.225177 0.180623 0.449149 0.26732201 0.676734 0.084291 0.225177 0.16496899 0.451558 0.24323899 0.677939 0.081882 0.23481 0.164969 0.472028 0.24083001 0.708042 0.072249 0.221564 0.137273 0.441924 0.203502 0.664693a32.126812 32.126812 0 0 1 0.211931 0.738146c0.059004 0.219156 0.111986 0.438312 0.166173 0.657467a23.707372 23.707372 0 0 1 0.177011 0.756209c0.048166 0.219156 0.090312 0.438312 0.133661 0.658672a25.494336 25.494336 0 0 1 0.242035 1.431738c0.037329 0.25287201 0.073453 0.505744 0.103557 0.759821 0.026491 0.227585 0.04937 0.456374 0.072249 0.685163 0.024083 0.24926 0.046962 0.49852 0.066229 0.748983 0.016858 0.233606 0.02649101 0.468416 0.038532 0.702022 0.012042 0.244443 0.024083 0.488886 0.0289 0.733329 0.006021 0.239627 0.006021 0.47925301 0.006021 0.720084s0 0.480457-0.00481699 0.720084z" p-id="1737" fill="#ffffff"></path></svg>