<?xml version="1.0" standalone="no"?><!DOCTYPE svg PUBLIC "-//W3C//DTD SVG 1.1//EN" "http://www.w3.org/Graphics/SVG/1.1/DTD/svg11.dtd"><svg t="1562390975370" class="icon" viewBox="0 0 1024 1024" version="1.1" xmlns="http://www.w3.org/2000/svg" p-id="10079" xmlns:xlink="http://www.w3.org/1999/xlink" width="50" height="50"><defs><style type="text/css"></style></defs><path d="M502.8 850.7c-45.7 0-90.1-9-131.9-26.6-40.4-17.1-76.6-41.5-107.7-72.6-31.1-31.1-55.5-67.4-72.6-107.7C172.9 602 164 557.6 164 511.9s9-90.1 26.6-131.9c17.1-40.4 41.5-76.6 72.6-107.7s67.4-55.5 107.7-72.6c41.8-17.7 86.2-26.6 131.9-26.6s90.1 9 131.9 26.6c40.4 17.1 76.6 41.5 107.7 72.6 31.1 31.1 55.5 67.4 72.6 107.7 17.7 41.8 26.6 86.2 26.6 131.9s-9 90.1-26.6 131.9c-17.1 40.4-41.5 76.6-72.6 107.7-31.1 31.1-67.4 55.5-107.7 72.6-41.8 17.6-86.2 26.6-131.9 26.6z m0-627.8c-159.3 0-288.9 129.6-288.9 288.9s129.6 288.9 288.9 288.9 288.9-129.6 288.9-288.9-129.6-288.9-288.9-288.9z" fill="#ffffff" p-id="10080"></path><path d="M503.3 492.4L373.9 363l35.4-35.4 94 94 93.5-93.5 35.4 35.4zM369.3 582.7h266.9v50H369.3z" fill="#ffffff" p-id="10081"></path><path d="M369.3 477.6h266.9v50H369.3z" fill="#ffffff" p-id="10082"></path><path d="M478 424.2h50v299.2h-50z" fill="#ffffff" p-id="10083"></path></svg>